<?xml version="1.0" encoding="UTF-8" standalone="no"?>
<svg
   version="1.1"
   width="1080"
   height="1080"
   viewBox="0 0 1080 1080"
   xml:space="preserve"
   id="svg3"
   sodipodi:docname="app_icon.svg"
   inkscape:version="1.4 (86a8ad7, 2024-10-11)"
   xmlns:inkscape="http://www.inkscape.org/namespaces/inkscape"
   xmlns:sodipodi="http://sodipodi.sourceforge.net/DTD/sodipodi-0.dtd"
   xmlns="http://www.w3.org/2000/svg"
   xmlns:svg="http://www.w3.org/2000/svg"><sodipodi:namedview
   id="namedview3"
   pagecolor="#ffffff"
   bordercolor="#000000"
   borderopacity="0.25"
   inkscape:showpageshadow="2"
   inkscape:pageopacity="0.0"
   inkscape:pagecheckerboard="0"
   inkscape:deskcolor="#d1d1d1"
   inkscape:zoom="0.79166667"
   inkscape:cx="540"
   inkscape:cy="540"
   inkscape:window-width="1920"
   inkscape:window-height="1057"
   inkscape:window-x="1912"
   inkscape:window-y="-8"
   inkscape:window-maximized="1"
   inkscape:current-layer="svg3" />
<desc
   id="desc1">Created with Fabric.js 5.2.4</desc>
<defs
   id="defs1">
</defs>
<rect
   x="0"
   y="0"
   width="64px"
   height="64px"
   fill="currentColor"
   id="rect1" />
<g
   transform="matrix(1 0 0 1 540 540)"
   id="f1572659-6801-4315-974e-da6d0986e01d">
<rect
   style="stroke: none; stroke-width: 1; stroke-dasharray: none; stroke-linecap: butt; stroke-dashoffset: 0; stroke-linejoin: miter; stroke-miterlimit: 4; fill: rgb(255,255,255); fill-rule: nonzero; opacity: 1; visibility: hidden;"
   vector-effect="non-scaling-stroke"
   x="-540"
   y="-540"
   rx="0"
   ry="0"
   width="1080"
   height="1080"
   id="rect2" />
</g>
<g
   transform="matrix(1 0 0 1 540 540)"
   id="af7d9336-efaa-4dea-82d4-10ac165f24ab">
</g>
<g
   transform="matrix(NaN NaN NaN NaN 0 0)"
   id="g3">
<g
   style=""
   id="g2">
</g>
</g>
<g
   transform="matrix(66.3,0,0,66.3,540,539.88066)"
   id="6a1f51e0-0881-443c-b1c3-eee0f5f1a4ab">
<path
   style="opacity:1;fill:currentColor;fill-rule:nonzero;stroke:#000000;stroke-width:0;stroke-linecap:butt;stroke-linejoin:miter;stroke-miterlimit:4;stroke-dasharray:none;stroke-dashoffset:0"
   vector-effect="non-scaling-stroke"
   transform="translate(-8,-8.03)"
   d="M 8,0.032 C 3.5810386,0.032 0,3.6152757 0,8.031497 0,12.44973 3.5820445,16.032 8,16.032 c 4.417956,0 8,-3.583276 8,-8.000503 C 16,3.6152757 12.417956,0.032 8,0.032 Z M 5,9.8585557 c -0.2430024,0.1885923 -0.636122,0.1885923 -0.8800626,0 L 2.1815481,8.3452162 c -0.2420641,-0.1904324 -0.2420641,-0.4986201 0,-0.6881325 L 4.1199374,6.1428243 C 4.363878,5.9523919 4.7569976,5.9523919 5,6.1428243 V 9.8585557 Z M 6.1416662,4.1189303 7.6557846,2.182266 c 0.1908477,-0.2430213 0.4983747,-0.2430213 0.6874134,0 L 9.8555075,4.1189303 C 10.048164,4.36289 10.048164,4.757917 9.8555075,5 H 6.1425706 C 5.9526275,4.757917 5.9526275,4.36289 6.1416662,4.1189303 Z m 3.7150113,7.7420817 -1.512315,1.939024 c -0.1929253,0.242619 -0.5001428,0.242619 -0.6894108,0 l -1.512315,-1.939024 c -0.1901823,-0.242619 -0.1901823,-0.63543 0,-0.879012 h 3.7140408 c 0.1910965,0.242619 0.1910965,0.636393 0,0.879012 z M 11.880628,9.8574066 c -0.242269,0.1901244 -0.636436,0.1901244 -0.880628,0 V 6.1425934 c 0.244192,-0.1901246 0.638359,-0.1901246 0.880628,0 l 1.936228,1.5136133 c 0.244192,0.1910476 0.244192,0.4993078 0,0.6885095 l -1.936228,1.5126904 z"
   stroke-linecap="round"
   id="path3" />
</g>
</svg>
