
<svg width="256px" height="256px" viewBox="-102.4 -102.4 1228.80 1228.80" class="icon" version="1.1" xmlns="http://www.w3.org/2000/svg" fill="#000000">

<g id="SVGRepo_bgCarrier" stroke-width="0" transform="translate(0,0), scale(1)">

<path transform="translate(-102.4, -102.4), scale(38.4)" d="M16,28.70152818535765C19.040400685805498,28.61915688840316,21.93257238859054,27.777544116709898,24.448709757520845,26.06878020631122C27.241233219369803,24.17231645617117,30.31991657003244,21.952149385469617,30.847793883835,18.61806666571824C31.372738379061424,15.302507681462165,28.866892096431812,12.443151595819522,27.053259323236624,9.618397754306597C25.345949893414126,6.959243739326016,23.814379309500882,3.7360461199136252,20.763669108273973,2.9119266912637283C17.790346020513013,2.1087126320287197,14.991382964913132,4.270062848636481,12.218709473645907,5.610989662444442C9.798548020367857,6.781433783133807,7.311002787702016,7.8842999620788685,5.835499460154034,10.131522877141828C4.2907203456421765,12.4842542875214,3.782967823648365,15.30886311820198,4.009159487709917,18.11430870368885C4.257539042943144,21.19494975934078,4.841424209377937,24.49161805040303,7.158223944578445,26.537218378962095C9.50348900219068,28.60795194281693,12.87253672972318,28.7862582036585,16,28.70152818535765" fill="#5499b0" strokewidth="0"/>

</g>

<g id="SVGRepo_tracerCarrier" stroke-linecap="round" stroke-linejoin="round" stroke="#CCCCCC" stroke-width="2.048"/>

<g id="SVGRepo_iconCarrier">

<path d="M789.333333 469.333333c0-164.266667-140.8-294.4-309.333333-275.2-128 14.933333-230.4 117.333333-243.2 245.333334-10.666667 98.133333 29.866667 185.6 98.133333 241.066666 29.866667 25.6 49.066667 61.866667 49.066667 102.4v6.4h256v-2.133333c0-38.4 17.066667-76.8 46.933333-102.4 61.866667-51.2 102.4-128 102.4-215.466667z" fill="#ffce52"/>

<path d="M652.8 430.933333l-64-42.666666c-6.4-4.266667-17.066667-4.266667-23.466667 0L512 422.4l-51.2-34.133333c-6.4-4.266667-17.066667-4.266667-23.466667 0l-64 42.666666c-4.266667 4.266667-8.533333 8.533333-8.533333 14.933334s0 12.8 4.266667 17.066666l81.066666 100.266667V789.333333h42.666667V554.666667c0-4.266667-2.133333-8.533333-4.266667-12.8l-70.4-87.466667 32-21.333333 51.2 34.133333c6.4 4.266667 17.066667 4.266667 23.466667 0l51.2-34.133333 32 21.333333-70.4 87.466667c-2.133333 4.266667-4.266667 8.533333-4.266667 12.8v234.666666h42.666667V563.2l81.066667-100.266667c4.266667-4.266667 6.4-10.666667 4.266666-17.066666s-4.266667-12.8-8.533333-14.933334z" fill="#fffbdb"/>

<path d="M512 938.666667m-64 0a64 64 0 1 0 128 0 64 64 0 1 0-128 0Z" fill="#5C6BC0"/>

<path d="M554.666667 960h-85.333334c-46.933333 0-85.333333-38.4-85.333333-85.333333v-106.666667h256v106.666667c0 46.933333-38.4 85.333333-85.333333 85.333333z" fill="#9FA8DA"/>

<path d="M640 874.666667l-247.466667 34.133333c6.4 14.933333 19.2 29.866667 34.133334 38.4l200.533333-27.733333c8.533333-12.8 12.8-27.733333 12.8-44.8zM384 825.6v42.666667L640 832v-42.666667z" fill="#5C6BC0"/>

<path d="M76.010667 136.448L136.32 76.117333l809.941333 809.941334-60.330666 60.330666z" fill="#37474F"/>

</g>

</svg>