<?xml version="1.0" encoding="UTF-8" standalone="no"?>
<svg
   width="256px"
   height="256px"
   viewBox="-102.4 -102.4 1228.80 1228.80"
   class="icon"
   version="1.1"
   fill="#000000"
   id="svg7"
   sodipodi:docname="no-buttons.svg"
   inkscape:version="1.4 (86a8ad7, 2024-10-11)"
   xmlns:inkscape="http://www.inkscape.org/namespaces/inkscape"
   xmlns:sodipodi="http://sodipodi.sourceforge.net/DTD/sodipodi-0.dtd"
   xmlns="http://www.w3.org/2000/svg"
   xmlns:svg="http://www.w3.org/2000/svg">
  <defs
     id="defs7" />
  <sodipodi:namedview
     id="namedview7"
     pagecolor="#ffffff"
     bordercolor="#000000"
     borderopacity="0.25"
     inkscape:showpageshadow="2"
     inkscape:pageopacity="0.0"
     inkscape:pagecheckerboard="0"
     inkscape:deskcolor="#d1d1d1"
     inkscape:zoom="2.3616262"
     inkscape:cx="114.96316"
     inkscape:cy="91.250683"
     inkscape:window-width="1920"
     inkscape:window-height="1057"
     inkscape:window-x="1912"
     inkscape:window-y="-8"
     inkscape:window-maximized="1"
     inkscape:current-layer="SVGRepo_iconCarrier" />
  <g
     id="SVGRepo_bgCarrier"
     stroke-width="0"
     transform="translate(0,0), scale(1)">
    <path
       transform="matrix(38.4,0,0,38.4,-102.4,-102.4)"
       d="m 16,28.701528 c 3.040401,-0.08237 5.932572,-0.923984 8.44871,-2.632748 2.792523,-1.896464 5.871207,-4.116631 6.399084,-7.450713 C 31.372738,15.302508 28.866892,12.443152 27.053259,9.6183978 25.34595,6.9592437 23.814379,3.7360461 20.763669,2.9119267 17.790346,2.1087126 14.991383,4.2700628 12.218709,5.6109897 9.798548,6.7814338 7.3110028,7.8843 5.8354995,10.131523 4.2907203,12.484254 3.7829678,15.308863 4.0091595,18.114309 4.257539,21.19495 4.8414242,24.491618 7.1582239,26.537218 9.503489,28.607952 12.872537,28.786258 16,28.701528"
       fill="#5499b0"
       strokewidth="0"
       id="path1"
       style="fill:#023047;fill-opacity:1"
       sodipodi:nodetypes="cssssssssc" />
  </g>
  <g
     id="SVGRepo_tracerCarrier"
     stroke-linecap="round"
     stroke-linejoin="round"
     stroke="#CCCCCC"
     stroke-width="2.048" />
  <g
     id="SVGRepo_iconCarrier">
    <path
       d="M789.333333 469.333333c0-164.266667-140.8-294.4-309.333333-275.2-128 14.933333-230.4 117.333333-243.2 245.333334-10.666667 98.133333 29.866667 185.6 98.133333 241.066666 29.866667 25.6 49.066667 61.866667 49.066667 102.4v6.4h256v-2.133333c0-38.4 17.066667-76.8 46.933333-102.4 61.866667-51.2 102.4-128 102.4-215.466667z"
       fill="#ffce52"
       id="path2"
       style="fill:#ffb703;fill-opacity:1" />
    <path
       d="M652.8 430.933333l-64-42.666666c-6.4-4.266667-17.066667-4.266667-23.466667 0L512 422.4l-51.2-34.133333c-6.4-4.266667-17.066667-4.266667-23.466667 0l-64 42.666666c-4.266667 4.266667-8.533333 8.533333-8.533333 14.933334s0 12.8 4.266667 17.066666l81.066666 100.266667V789.333333h42.666667V554.666667c0-4.266667-2.133333-8.533333-4.266667-12.8l-70.4-87.466667 32-21.333333 51.2 34.133333c6.4 4.266667 17.066667 4.266667 23.466667 0l51.2-34.133333 32 21.333333-70.4 87.466667c-2.133333 4.266667-4.266667 8.533333-4.266667 12.8v234.666666h42.666667V563.2l81.066667-100.266667c4.266667-4.266667 6.4-10.666667 4.266666-17.066666s-4.266667-12.8-8.533333-14.933334z"
       fill="#fffbdb"
       id="path3"
       style="fill:#ffffff;fill-opacity:1" />
    <path
       d="m 448,938.66667 c 0,35.34624 28.65378,63.99993 64,63.99993 35.34622,0 64,-28.65369 64,-63.99993 0,-35.34625 -28.65378,-63.99998 -64,-63.99998 -35.34622,0 -64,28.65373 -64,63.99998 z"
       fill="#5c6bc0"
       id="path4"
       sodipodi:nodetypes="sssss"
       style="fill:#219ebc;fill-opacity:1" />
    <path
       d="M 554.66667,960 H 469.33333 C 422.4,960 384,921.6 384,874.66667 V 768 H 640 V 874.66667 C 640,921.6 601.6,960 554.66667,960 Z"
       fill="#9FA8DA"
       id="path5"
       style="fill:#8ecae6;fill-opacity:1"
       sodipodi:nodetypes="sssccss" />
    <path
       d="m 640,874.66667 -248.39947,34.97896 c 6.4,14.93333 18.22734,29.65619 33.16067,38.18953 L 627.2,919.46667 c 8.53333,-12.8 12.8,-27.73334 12.8,-44.8 z M 384,825.6 v 42.66667 L 640,832 v -42.66667 z"
       fill="#5c6bc0"
       id="path6"
       sodipodi:nodetypes="cccccccccc"
       style="fill:#219ebc;fill-opacity:1" />
    <path
       d="M 76.010667,136.448 136.32,76.117333 946.26133,886.05867 885.93067,946.38933 Z"
       fill="#37474f"
       id="path7"
       sodipodi:nodetypes="ccccc"
       style="fill:#fb8500;fill-opacity:1" />
  </g>
</svg>
